<svg width="235.6449951171875px" height="122.021240234375px" xmlns="http://www.w3.org/2000/svg" viewBox="132.17750244140626 13.9893798828125 235.6449951171875 122.021240234375" style="background: rgba(0, 0, 0, 0);" preserveAspectRatio="xMidYMid"><defs><linearGradient id="editing-shiny-gradient" x1="0.04322727117869957" x2="0.9567727288213004" y1="0.2966316784620999" y2="0.7033683215379001" gradientUnits="objectBoundingBox"><stop offset="0.0" stop-color="#ffb200"></stop><stop offset="0.5" stop-color="#e10057"></stop><stop offset="1.0" stop-color="#5A1A80"></stop></linearGradient><linearGradient id="editing-shiny-gradient2" x1="0" x2="0" y1="0" y2="1"><stop offset="0.2" stop-color="#fff" stop-opacity="0.8"></stop><stop offset="0.8" stop-color="#fff" stop-opacity="0"></stop></linearGradient><filter id="editing-shiny2" x="-100%" y="-100%" width="300%" height="300%"><feMorphology operator="erode" radius="2"></feMorphology></filter><filter id="editing-shiny" x="-100%" y="-100%" width="300%" height="300%"><feFlood flood-color="#fff" result="flood"></feFlood><feConvolveMatrix in="SourceGraphic" result="conv" order="8,8" divisor="1" kernelMatrix="0 0 0 0 0 0 0 0 0 0 0 1 1 0 0 0 0 0 0 1 1 0 0 0 0 0 1 0 0 1 0 0 0 0 1 0 0 1 0 0 0 1 0 0 0 0 1 0 0 1 1 0 0 1 1 0 0 0 0 1 1 0 0 0 "></feConvolveMatrix><feOffset dx="0" dy="4" in="conv" result="offset"></feOffset><feComposite operator="in" in="flood" in2="offset" result="comp"></feComposite><feGaussianBlur in="offset" stdDeviation="3" result="shadow"></feGaussianBlur><feColorMatrix in="shadow" type="matrix" values="0.7 0 0 0 0  0 0.7 0 0 0  0 0 0.7 0 0  0 0 0 0.3 0" result="dark-shadow"></feColorMatrix><feOffset dx="0" dy="4" in="dark-shadow" result="offset-shadow"></feOffset><feOffset dx="0" dy="2" in="conv" result="offset-2"></feOffset><feComposite operator="out" in="offset" in2="offset-2" result="edge-diff"></feComposite><feGaussianBlur in="edge-diff" stdDeviation="1" result="edge-blur"></feGaussianBlur><feColorMatrix in="edge-blur" result="edge-shadow" type="matrix" values="0 0 0 0 0  0 0 0 0 0  0 0 0 0 0  0 0 0 0.5 0"></feColorMatrix><feComposite operator="in" in="edge-shadow" in2="offset" result="edge-shadow-in"></feComposite><feOffset dx="0" dy="1" in="edge-shadow-in" result="edge-shadow-final"></feOffset><feMerge result="out"><feMergeNode in="offset-shadow"></feMergeNode><feMergeNode in="comp"></feMergeNode><feMergeNode in="edge-shadow-final"></feMergeNode><feMergeNode in="SourceGraphic"></feMergeNode></feMerge></filter></defs><g filter="url(#editing-shiny)"><g transform="translate(171.8600054681301, 98.67218780517578)"><path d="M24.96-4.80L24.96-4.80L24.96-4.80Q24.96-9.28 26.75-18.24L26.75-18.24L17.28-18.24L13.76 0L0.38 0L8.51-42.24L22.02-42.24L18.30-23.36L27.78-23.36L31.30-42.24L44.80-42.24L44.80-42.24Q43.90-37.50 42.75-32.19L42.75-32.19L40.58-21.76L40.58-21.76Q38.14-9.60 38.14-4.29L38.14-4.29L38.14-4.29Q38.14-2.11 38.85-0.90L38.85-0.90L38.85-0.90Q35.65 1.28 31.90 1.28L31.90 1.28L31.90 1.28Q28.16 1.28 26.56-0.51L26.56-0.51L26.56-0.51Q24.96-2.30 24.96-4.80ZM72.26-10.82L72.26-10.82L72.26-10.82Q73.86-9.73 73.86-7.33L73.86-7.33L73.86-7.33Q73.86-4.93 72.64-3.39L72.64-3.39L72.64-3.39Q71.42-1.86 69.44-0.83L69.44-0.83L69.44-0.83Q65.34 1.28 60.93 1.28L60.93 1.28L60.93 1.28Q56.51 1.28 53.92 0.32L53.92 0.32L53.92 0.32Q51.33-0.64 49.60-2.43L49.60-2.43L49.60-2.43Q46.21-5.82 46.21-12.03L46.21-12.03L46.21-12.03Q46.21-21.70 51.46-27.58L51.46-27.58L51.46-27.58Q57.09-33.92 66.88-33.92L66.88-33.92L66.88-33.92Q72.96-33.92 75.97-31.36L75.97-31.36L75.97-31.36Q78.21-29.44 78.21-26.30L78.21-26.30L78.21-26.30Q78.21-15.04 58.75-15.04L58.75-15.04L58.75-15.04Q58.50-13.38 58.50-11.97L58.50-11.97L58.50-11.97Q58.50-9.02 59.81-7.90L59.81-7.90L59.81-7.90Q61.12-6.78 63.55-6.78L63.55-6.78L63.55-6.78Q65.98-6.78 68.58-7.90L68.58-7.90L68.58-7.90Q71.17-9.02 72.26-10.82ZM59.20-17.79L59.20-17.79L59.20-17.79Q63.74-17.79 66.37-20.61L66.37-20.61L66.37-20.61Q68.99-23.30 68.99-27.58L68.99-27.58L68.99-27.58Q68.99-29.06 68.45-29.86L68.45-29.86L68.45-29.86Q67.90-30.66 66.82-30.66L66.82-30.66L66.82-30.66Q65.73-30.66 64.80-30.24L64.80-30.24L64.80-30.24Q63.87-29.82 62.91-28.42L62.91-28.42L62.91-28.42Q60.54-25.22 59.20-17.79ZM95.68-3.52L95.68-3.52L95.68-3.52Q93.70 1.28 87.36 1.28L87.36 1.28L87.36 1.28Q84.16 1.28 82.11-0.96L82.11-0.96L82.11-0.96Q80.45-2.82 80.45-4.93L80.45-4.93L80.45-4.93Q80.45-9.73 82.69-20.22L82.69-20.22L87.36-44.80L100.35-46.08L94.14-13.70L94.14-13.70Q93.06-8.96 93.06-7.30L93.06-7.30L93.06-7.30Q93.06-3.65 95.68-3.52ZM116.42-3.52L116.42-3.52L116.42-3.52Q114.43 1.28 108.10 1.28L108.10 1.28L108.10 1.28Q104.90 1.28 102.85-0.96L102.85-0.96L102.85-0.96Q101.18-2.82 101.18-4.93L101.18-4.93L101.18-4.93Q101.18-9.73 103.42-20.22L103.42-20.22L108.10-44.80L121.09-46.08L114.88-13.70L114.88-13.70Q113.79-8.96 113.79-7.30L113.79-7.30L113.79-7.30Q113.79-3.65 116.42-3.52ZM135.81 1.28L135.81 1.28L135.81 1.28Q121.73 1.28 121.73-11.97L121.73-11.97L121.73-11.97Q121.73-21.38 126.91-27.46L126.91-27.46L126.91-27.46Q132.42-33.92 141.95-33.92L141.95-33.92L141.95-33.92Q148.86-33.92 152.38-30.72L152.38-30.72L152.38-30.72Q155.90-27.52 155.90-20.80L155.90-20.80L155.90-20.80Q155.90-10.56 150.40-4.61L150.40-4.61L150.40-4.61Q145.02 1.28 135.81 1.28ZM137.47-26.56L137.47-26.56L137.47-26.56Q136.70-24.83 136.10-22.24L136.10-22.24L136.10-22.24Q135.49-19.65 134.72-15.55L134.72-15.55L134.72-15.55Q133.95-11.46 133.95-6.40L133.95-6.40L133.95-6.40Q133.95-4.74 134.50-3.65L134.50-3.65L134.50-3.65Q135.04-2.56 136.51-2.56L136.51-2.56L136.51-2.56Q137.98-2.56 138.91-3.26L138.91-3.26L138.91-3.26Q139.84-3.97 140.54-5.63L140.54-5.63L140.54-5.63Q141.82-8.58 142.85-14.05L142.85-14.05L142.85-14.05Q143.87-19.52 143.97-21.89L143.97-21.89L143.97-21.89Q144.06-24.26 144.06-26.02L144.06-26.02L144.06-26.02Q144.06-27.78 143.55-28.93L143.55-28.93L143.55-28.93Q143.04-30.08 141.60-30.08L141.60-30.08L141.60-30.08Q140.16-30.08 139.20-29.18L139.20-29.18L139.20-29.18Q138.24-28.29 137.47-26.56Z" fill="url(#editing-shiny-gradient)"></path></g></g><g filter="url(#editing-shiny2)"><g transform="translate(171.8600054681301, 98.68000030517578)"><path d="M24.96-4.80L24.96-4.80L24.96-4.80Q24.96-9.28 26.75-18.24L26.75-18.24L17.28-18.24L13.76 0L0.38 0L8.51-42.24L22.02-42.24L18.30-23.36L27.78-23.36L31.30-42.24L44.80-42.24L44.80-42.24Q43.90-37.50 42.75-32.19L42.75-32.19L40.58-21.76L40.58-21.76Q38.14-9.60 38.14-4.29L38.14-4.29L38.14-4.29Q38.14-2.11 38.85-0.90L38.85-0.90L38.85-0.90Q35.65 1.28 31.90 1.28L31.90 1.28L31.90 1.28Q28.16 1.28 26.56-0.51L26.56-0.51L26.56-0.51Q24.96-2.30 24.96-4.80ZM72.26-10.82L72.26-10.82L72.26-10.82Q73.86-9.73 73.86-7.33L73.86-7.33L73.86-7.33Q73.86-4.93 72.64-3.39L72.64-3.39L72.64-3.39Q71.42-1.86 69.44-0.83L69.44-0.83L69.44-0.83Q65.34 1.28 60.93 1.28L60.93 1.28L60.93 1.28Q56.51 1.28 53.92 0.32L53.92 0.32L53.92 0.32Q51.33-0.64 49.60-2.43L49.60-2.43L49.60-2.43Q46.21-5.82 46.21-12.03L46.21-12.03L46.21-12.03Q46.21-21.70 51.46-27.58L51.46-27.58L51.46-27.58Q57.09-33.92 66.88-33.92L66.88-33.92L66.88-33.92Q72.96-33.92 75.97-31.36L75.97-31.36L75.97-31.36Q78.21-29.44 78.21-26.30L78.21-26.30L78.21-26.30Q78.21-15.04 58.75-15.04L58.75-15.04L58.75-15.04Q58.50-13.38 58.50-11.97L58.50-11.97L58.50-11.97Q58.50-9.02 59.81-7.90L59.81-7.90L59.81-7.90Q61.12-6.78 63.55-6.78L63.55-6.78L63.55-6.78Q65.98-6.78 68.58-7.90L68.58-7.90L68.58-7.90Q71.17-9.02 72.26-10.82ZM59.20-17.79L59.20-17.79L59.20-17.79Q63.74-17.79 66.37-20.61L66.37-20.61L66.37-20.61Q68.99-23.30 68.99-27.58L68.99-27.58L68.99-27.58Q68.99-29.06 68.45-29.86L68.45-29.86L68.45-29.86Q67.90-30.66 66.82-30.66L66.82-30.66L66.82-30.66Q65.73-30.66 64.80-30.24L64.80-30.24L64.80-30.24Q63.87-29.82 62.91-28.42L62.91-28.42L62.91-28.42Q60.54-25.22 59.20-17.79ZM95.68-3.52L95.68-3.52L95.68-3.52Q93.70 1.28 87.36 1.28L87.36 1.28L87.36 1.28Q84.16 1.28 82.11-0.96L82.11-0.96L82.11-0.96Q80.45-2.82 80.45-4.93L80.45-4.93L80.45-4.93Q80.45-9.73 82.69-20.22L82.69-20.22L87.36-44.80L100.35-46.08L94.14-13.70L94.14-13.70Q93.06-8.96 93.06-7.30L93.06-7.30L93.06-7.30Q93.06-3.65 95.68-3.52ZM116.42-3.52L116.42-3.52L116.42-3.52Q114.43 1.28 108.10 1.28L108.10 1.28L108.10 1.28Q104.90 1.28 102.85-0.96L102.85-0.96L102.85-0.96Q101.18-2.82 101.18-4.93L101.18-4.93L101.18-4.93Q101.18-9.73 103.42-20.22L103.42-20.22L108.10-44.80L121.09-46.08L114.88-13.70L114.88-13.70Q113.79-8.96 113.79-7.30L113.79-7.30L113.79-7.30Q113.79-3.65 116.42-3.52ZM135.81 1.28L135.81 1.28L135.81 1.28Q121.73 1.28 121.73-11.97L121.73-11.97L121.73-11.97Q121.73-21.38 126.91-27.46L126.91-27.46L126.91-27.46Q132.42-33.92 141.95-33.92L141.95-33.92L141.95-33.92Q148.86-33.92 152.38-30.72L152.38-30.72L152.38-30.72Q155.90-27.52 155.90-20.80L155.90-20.80L155.90-20.80Q155.90-10.56 150.40-4.61L150.40-4.61L150.40-4.61Q145.02 1.28 135.81 1.28ZM137.47-26.56L137.47-26.56L137.47-26.56Q136.70-24.83 136.10-22.24L136.10-22.24L136.10-22.24Q135.49-19.65 134.72-15.55L134.72-15.55L134.72-15.55Q133.95-11.46 133.95-6.40L133.95-6.40L133.95-6.40Q133.95-4.74 134.50-3.65L134.50-3.65L134.50-3.65Q135.04-2.56 136.51-2.56L136.51-2.56L136.51-2.56Q137.98-2.56 138.91-3.26L138.91-3.26L138.91-3.26Q139.84-3.97 140.54-5.63L140.54-5.63L140.54-5.63Q141.82-8.58 142.85-14.05L142.85-14.05L142.85-14.05Q143.87-19.52 143.97-21.89L143.97-21.89L143.97-21.89Q144.06-24.26 144.06-26.02L144.06-26.02L144.06-26.02Q144.06-27.78 143.55-28.93L143.55-28.93L143.55-28.93Q143.04-30.08 141.60-30.08L141.60-30.08L141.60-30.08Q140.16-30.08 139.20-29.18L139.20-29.18L139.20-29.18Q138.24-28.29 137.47-26.56Z" fill="url(#editing-shiny-gradient2)"></path></g></g><style>text {
  font-size: 64px;
  font-family: Arial Black;
  dominant-baseline: central;
  text-anchor: middle;
}</style></svg>