<svg width="451.205029296875px" height="122.021240234375px" xmlns="http://www.w3.org/2000/svg" viewBox="24.397485351562494 13.9893798828125 451.205029296875 122.021240234375" style="background: rgba(0, 0, 0, 0); --darkreader-inline-bgimage: initial; --darkreader-inline-bgcolor:rgba(0, 0, 0, 0);" data-darkreader-inline-bgimage="" data-darkreader-inline-bgcolor="" preserveAspectRatio="xMidYMid"><defs><linearGradient id="editing-outline-gradient" x1="-0.41354545764260087" x2="1.4135454576426008" y1="0.09326335692419985" y2="0.9067366430758002"><stop offset="0" stop-color="#ee4208" data-darkreader-inline-stopcolor="" style="--darkreader-inline-stopcolor:#be3506;"></stop><stop offset="1" stop-color="#4139ff" data-darkreader-inline-stopcolor="" style="--darkreader-inline-stopcolor:#0700aa;"></stop></linearGradient><filter id="editing-outline" x="-100%" y="-100%" width="300%" height="300%"><feMorphology in="SourceGraphic" operator="dilate" radius="1" result="outline"></feMorphology><feComposite operator="out" in="outline" in2="SourceAlpha"></feComposite></filter></defs><g filter="url(#editing-outline)"><g transform="translate(91.86000546813011, 104.46218872070312)"><path d="M24.96-4.80L24.96-4.80L24.96-4.80Q24.96-9.28 26.75-18.24L26.75-18.24L17.28-18.24L13.76 0L0.38 0L8.51-42.24L22.02-42.24L18.30-23.36L27.78-23.36L31.30-42.24L44.80-42.24L44.80-42.24Q43.90-37.50 42.75-32.19L42.75-32.19L40.58-21.76L40.58-21.76Q38.14-9.60 38.14-4.29L38.14-4.29L38.14-4.29Q38.14-2.11 38.85-0.90L38.85-0.90L38.85-0.90Q35.65 1.28 31.90 1.28L31.90 1.28L31.90 1.28Q28.16 1.28 26.56-0.51L26.56-0.51L26.56-0.51Q24.96-2.30 24.96-4.80ZM72.26-10.82L72.26-10.82L72.26-10.82Q73.86-9.73 73.86-7.33L73.86-7.33L73.86-7.33Q73.86-4.93 72.64-3.39L72.64-3.39L72.64-3.39Q71.42-1.86 69.44-0.83L69.44-0.83L69.44-0.83Q65.34 1.28 60.93 1.28L60.93 1.28L60.93 1.28Q56.51 1.28 53.92 0.32L53.92 0.32L53.92 0.32Q51.33-0.64 49.60-2.43L49.60-2.43L49.60-2.43Q46.21-5.82 46.21-12.03L46.21-12.03L46.21-12.03Q46.21-21.70 51.46-27.58L51.46-27.58L51.46-27.58Q57.09-33.92 66.88-33.92L66.88-33.92L66.88-33.92Q72.96-33.92 75.97-31.36L75.97-31.36L75.97-31.36Q78.21-29.44 78.21-26.30L78.21-26.30L78.21-26.30Q78.21-15.04 58.75-15.04L58.75-15.04L58.75-15.04Q58.50-13.38 58.50-11.97L58.50-11.97L58.50-11.97Q58.50-9.02 59.81-7.90L59.81-7.90L59.81-7.90Q61.12-6.78 63.55-6.78L63.55-6.78L63.55-6.78Q65.98-6.78 68.58-7.90L68.58-7.90L68.58-7.90Q71.17-9.02 72.26-10.82ZM59.20-17.79L59.20-17.79L59.20-17.79Q63.74-17.79 66.37-20.61L66.37-20.61L66.37-20.61Q68.99-23.30 68.99-27.58L68.99-27.58L68.99-27.58Q68.99-29.06 68.45-29.86L68.45-29.86L68.45-29.86Q67.90-30.66 66.82-30.66L66.82-30.66L66.82-30.66Q65.73-30.66 64.80-30.24L64.80-30.24L64.80-30.24Q63.87-29.82 62.91-28.42L62.91-28.42L62.91-28.42Q60.54-25.22 59.20-17.79ZM95.68-3.52L95.68-3.52L95.68-3.52Q93.70 1.28 87.36 1.28L87.36 1.28L87.36 1.28Q84.16 1.28 82.11-0.96L82.11-0.96L82.11-0.96Q80.45-2.82 80.45-4.93L80.45-4.93L80.45-4.93Q80.45-9.73 82.69-20.22L82.69-20.22L87.36-44.80L100.35-46.08L94.14-13.70L94.14-13.70Q93.06-8.96 93.06-7.30L93.06-7.30L93.06-7.30Q93.06-3.65 95.68-3.52ZM116.42-3.52L116.42-3.52L116.42-3.52Q114.43 1.28 108.10 1.28L108.10 1.28L108.10 1.28Q104.90 1.28 102.85-0.96L102.85-0.96L102.85-0.96Q101.18-2.82 101.18-4.93L101.18-4.93L101.18-4.93Q101.18-9.73 103.42-20.22L103.42-20.22L108.10-44.80L121.09-46.08L114.88-13.70L114.88-13.70Q113.79-8.96 113.79-7.30L113.79-7.30L113.79-7.30Q113.79-3.65 116.42-3.52ZM135.81 1.28L135.81 1.28L135.81 1.28Q121.73 1.28 121.73-11.97L121.73-11.97L121.73-11.97Q121.73-21.38 126.91-27.46L126.91-27.46L126.91-27.46Q132.42-33.92 141.95-33.92L141.95-33.92L141.95-33.92Q148.86-33.92 152.38-30.72L152.38-30.72L152.38-30.72Q155.90-27.52 155.90-20.80L155.90-20.80L155.90-20.80Q155.90-10.56 150.40-4.61L150.40-4.61L150.40-4.61Q145.02 1.28 135.81 1.28ZM137.47-26.56L137.47-26.56L137.47-26.56Q136.70-24.83 136.10-22.24L136.10-22.24L136.10-22.24Q135.49-19.65 134.72-15.55L134.72-15.55L134.72-15.55Q133.95-11.46 133.95-6.40L133.95-6.40L133.95-6.40Q133.95-4.74 134.50-3.65L134.50-3.65L134.50-3.65Q135.04-2.56 136.51-2.56L136.51-2.56L136.51-2.56Q137.98-2.56 138.91-3.26L138.91-3.26L138.91-3.26Q139.84-3.97 140.54-5.63L140.54-5.63L140.54-5.63Q141.82-8.58 142.85-14.05L142.85-14.05L142.85-14.05Q143.87-19.52 143.97-21.89L143.97-21.89L143.97-21.89Q144.06-24.26 144.06-26.02L144.06-26.02L144.06-26.02Q144.06-27.78 143.55-28.93L143.55-28.93L143.55-28.93Q143.04-30.08 141.60-30.08L141.60-30.08L141.60-30.08Q140.16-30.08 139.20-29.18L139.20-29.18L139.20-29.18Q138.24-28.29 137.47-26.56ZM199.62-9.86L199.62-9.86L199.62-9.86Q200.83-8.32 200.83-5.34L200.83-5.34L200.83-5.34Q200.83-2.37 198.56-0.54L198.56-0.54L198.56-0.54Q196.29 1.28 192.32 1.28L192.32 1.28L192.32 1.28Q190.02 1.28 186.43 0.77L186.43 0.77L186.43 0.77Q179.39-0.32 177.38-0.32L177.38-0.32L177.38-0.32Q175.36-0.32 174.53-0.22L174.53-0.22L174.53-0.22Q173.70-0.13 172.35 0L172.35 0L180.10-42.24L194.11-42.24L187.71-7.04L187.71-7.04Q188.54-6.91 189.31-6.91L189.31-6.91L190.91-6.91L190.91-6.91Q196.29-6.91 199.62-9.86ZM225.66-2.69L225.66-2.69L225.66-2.69Q222.59 1.28 214.98 1.28L214.98 1.28L214.98 1.28Q211.01 1.28 208.13-1.12L208.13-1.12L208.13-1.12Q205.25-3.52 205.25-6.98L205.25-6.98L205.25-6.98Q205.25-8.90 205.44-9.86L205.44-9.86L209.73-32.64L222.72-33.92L218.05-9.22L218.05-9.22Q217.79-7.81 217.79-6.98L217.79-6.98L217.79-6.98Q217.79-3.26 220.03-3.26L220.03-3.26L220.03-3.26Q222.53-3.26 224.32-6.66L224.32-6.66L224.32-6.66Q224.90-7.74 225.15-9.15L225.15-9.15L229.70-32.64L242.30-33.92L237.57-8.96L237.57-8.96Q237.38-8 237.38-6.98L237.38-6.98L237.38-6.98Q237.38-5.95 237.95-4.83L237.95-4.83L237.95-4.83Q238.53-3.71 240.38-3.46L240.38-3.46L240.38-3.46Q240-1.92 238.66-0.90L238.66-0.90L238.66-0.90Q235.84 1.28 232.80 1.28L232.80 1.28L232.80 1.28Q229.76 1.28 227.97 0.19L227.97 0.19L227.97 0.19Q226.18-0.90 225.66-2.69ZM276.93-26.62L276.93-26.62L276.93-26.62Q276.93-23.94 274.69-22.27L274.69-22.27L274.69-22.27Q272.45-20.61 268.80-20.61L268.80-20.61L268.80-20.61Q267.26-20.61 266.37-21.06L266.37-21.06L266.37-21.06Q267.07-22.72 267.30-24.80L267.30-24.80L267.30-24.80Q267.52-26.88 267.52-27.46L267.52-27.46L267.52-27.46Q267.52-30.14 265.66-30.14L265.66-30.14L265.66-30.14Q264.38-30.14 262.94-28.54L262.94-28.54L262.94-28.54Q261.50-26.94 260.29-24.45L260.29-24.45L260.29-24.45Q257.60-18.69 257.60-12.86L257.60-12.86L257.60-12.86Q257.60-9.66 258.82-8.22L258.82-8.22L258.82-8.22Q260.03-6.78 262.72-6.78L262.72-6.78L262.72-6.78Q266.43-6.78 269.38-9.86L269.38-9.86L269.38-9.86Q270.21-10.82 270.66-11.90L270.66-11.90L270.66-11.90Q273.09-10.62 273.09-7.10L273.09-7.10L273.09-7.10Q273.09-3.52 269.12-1.15L269.12-1.15L269.12-1.15Q265.02 1.28 258.50 1.28L258.50 1.28L258.50 1.28Q245.50 1.28 245.50-12.48L245.50-12.48L245.50-12.48Q245.50-22.53 251.20-28.29L251.20-28.29L251.20-28.29Q256.70-33.92 266.82-33.92L266.82-33.92L266.82-33.92Q276.93-33.92 276.93-26.62ZM299.01-7.23L299.01-7.23L299.01-7.23Q295.68-3.78 289.60-3.78L289.60-3.78L289.60-3.78Q281.98-3.78 280.38-9.34L280.38-9.34L280.38-9.34Q279.87-11.01 279.87-12.86L279.87-12.86L279.87-12.86Q279.87-14.72 280.26-16.64L280.26-16.64L283.26-32.64L296.26-33.92L292.74-15.30L292.74-15.30Q292.61-14.46 292.42-13.57L292.42-13.57L292.42-13.57Q292.22-12.67 292.22-11.74L292.22-11.74L292.22-11.74Q292.22-10.82 292.54-10.21L292.54-10.21L292.54-10.21Q292.86-9.60 293.31-9.22L293.31-9.22L293.31-9.22Q294.08-8.70 295.46-8.70L295.46-8.70L295.46-8.70Q296.83-8.70 298.02-10.37L298.02-10.37L298.02-10.37Q299.20-12.03 299.78-14.91L299.78-14.91L303.30-32.64L315.90-33.92L311.10-8.77L311.10-8.77Q308.74 3.52 303.87 8.38L303.87 8.38L303.87 8.38Q301.38 10.88 298.14 11.87L298.14 11.87L298.14 11.87Q294.91 12.86 290.75 12.86L290.75 12.86L290.75 12.86Q284.03 12.86 280.19 10.75L280.19 10.75L280.19 10.75Q276.35 8.64 276.35 5.12L276.35 5.12L276.35 5.12Q276.35 2.50 278.34 0.99L278.34 0.99L278.34 0.99Q280.32-0.51 283.39-0.51L283.39-0.51L283.39-0.51Q286.08-0.51 288.13 0.64L288.13 0.64L288.13 0.64Q289.34 1.34 289.92 2.24L289.92 2.24L289.92 2.24Q288.45 3.52 288.45 5.63L288.45 5.63L288.45 5.63Q288.45 8.45 291.01 8.45L291.01 8.45L291.01 8.45Q295.23 8.45 297.66-1.28L297.66-1.28L297.66-1.28Q298.37-4.16 299.01-7.23Z" fill="url(#editing-outline-gradient)"></path></g></g><style>text {
  font-size: 64px;
  font-family: Arial Black;
  dominant-baseline: central;
  text-anchor: middle;
}</style><style class="darkreader darkreader--sync" media="screen"></style></svg>